<svg width="17" height="18" viewBox="0 0 17 17" fill="none" xmlns="http://www.w3.org/2000/svg">
<path d="M14.7273 8.27182V3.27273C14.7273 2.37273 13.9991 1.63636 13.0909 1.63636H9.67091C9.32727 0.687273 8.42727 0 7.36364 0C6.3 0 5.4 0.687273 5.05636 1.63636H1.63636C0.736364 1.63636 0 2.37273 0 3.27273V14.7273C0 15.6355 0.736364 16.3636 1.63636 16.3636H6.63545C7.66636 17.3782 9.07364 18 10.6364 18C13.8027 18 16.3636 15.4391 16.3636 12.2727C16.3636 10.71 15.7418 9.30273 14.7273 8.27182ZM7.36364 1.63636C7.81364 1.63636 8.18182 2.00455 8.18182 2.45455C8.18182 2.90455 7.81364 3.27273 7.36364 3.27273C6.91364 3.27273 6.54545 2.90455 6.54545 2.45455C6.54545 2.00455 6.91364 1.63636 7.36364 1.63636ZM1.63636 14.7273V3.27273H3.27273V4.90909H11.4545V3.27273H13.0909V7.10182C12.3464 6.75 11.52 6.54545 10.6364 6.54545H3.27273V8.18182H6.62727C6.13636 8.64818 5.76 9.20455 5.46546 9.81818H3.27273V11.4545H4.97455C4.93364 11.7245 4.90909 11.9945 4.90909 12.2727C4.90909 13.1564 5.11364 13.9827 5.46546 14.7273H1.63636ZM10.6364 16.3636C8.37818 16.3636 6.54545 14.5309 6.54545 12.2727C6.54545 10.0145 8.37818 8.18182 10.6364 8.18182C12.8945 8.18182 14.7273 10.0145 14.7273 12.2727C14.7273 14.5309 12.8945 16.3636 10.6364 16.3636ZM11.0455 12.4773L13.3855 13.86L12.7718 14.8582L9.81818 13.0909V9H11.0455V12.4773Z" fill="white"/>
</svg>
